<svg width="29" height="29" viewBox="0 0 29 29" fill="none" xmlns="http://www.w3.org/2000/svg">
<path d="M15.3711 6.04527L13.5996 6.04165C9.55898 6.03198 6.05119 9.31502 6.0234 13.2916V17.8712C6.0234 18.8258 5.90257 19.7574 5.38178 20.5513L5.03498 21.0806C4.50694 21.8829 5.07486 22.9583 6.0234 22.9583H22.9763C23.9249 22.9583 24.4916 21.8829 23.9647 21.0806L23.6179 20.5513C23.0984 19.7574 22.9763 18.8246 22.9763 17.87V13.2929C22.928 9.31502 19.4117 6.05494 15.3711 6.04527V6.04527Z" stroke="#2E4B7E" stroke-width="2" stroke-linecap="round" stroke-linejoin="round"/>
<path d="M18.125 22.9583C18.125 23.9197 17.7431 24.8418 17.0633 25.5216C16.3834 26.2014 15.4614 26.5833 14.5 26.5833C13.5386 26.5833 12.6166 26.2014 11.9367 25.5216C11.2569 24.8418 10.875 23.9197 10.875 22.9583" stroke="#2E4B7E" stroke-width="2" stroke-linecap="round" stroke-linejoin="round"/>
<path d="M14.5 2.41666C15.1409 2.41666 15.7556 2.67127 16.2088 3.12448C16.662 3.57769 16.9166 4.19238 16.9166 4.83332V6.04166H12.0833V4.83332C12.0833 4.19238 12.3379 3.57769 12.7911 3.12448C13.2444 2.67127 13.859 2.41666 14.5 2.41666Z" stroke="#2E4B7E" stroke-width="2" stroke-linecap="round" stroke-linejoin="round"/>
</svg>
