<svg width="22" height="22" viewBox="0 0 22 22" fill="none" xmlns="http://www.w3.org/2000/svg">
<path d="M10.7615 18.6998C6.84349 18.6998 3.6665 16.6643 3.6665 13.1814V13.1121C3.6665 11.4424 4.72129 10.1069 6.32713 9.23977C7.86359 8.41045 8.77175 6.88266 8.54471 5.29811L8.10088 2.93311L9.74534 3.55983C12.7071 4.68715 15.1738 6.64379 16.7725 9.13019C17.4755 10.2103 17.8518 11.4702 17.8565 12.7589V13.1814C17.8565 14.4128 17.4592 15.4637 16.7725 16.3072" stroke="#CA3D2E" stroke-width="3" stroke-linecap="round" stroke-linejoin="round"/>
<path d="M10.7615 18.6997C9.45522 18.6997 8.39648 17.5701 8.39648 16.1771C8.39648 15.0734 9.19743 14.1897 9.9022 13.3801L10.7615 12.3931L11.6208 13.3801C12.3255 14.1905 13.1265 15.0734 13.1265 16.1771C13.1265 17.5701 12.0678 18.6997 10.7615 18.6997Z" stroke="#CA3D2E" stroke-width="3" stroke-linecap="round" stroke-linejoin="round"/>
</svg>
