<svg width="45" height="45" viewBox="0 0 45 45" fill="none" xmlns="http://www.w3.org/2000/svg">
<path fill-rule="evenodd" clip-rule="evenodd" d="M41 22.5C41 32.7173 32.7173 41 22.5 41C12.2827 41 4 32.7173 4 22.5C4 12.2827 12.2827 4 22.5 4C32.7173 4 41 12.2827 41 22.5ZM44 22.5C44 34.3741 34.3741 44 22.5 44C10.6259 44 1 34.3741 1 22.5C1 10.6259 10.6259 1 22.5 1C34.3741 1 44 10.6259 44 22.5ZM12.5697 22.8106L19.8111 30.0134C19.9858 30.1861 20.2702 30.1861 20.4449 30.0114L21.9581 28.49L21.9561 28.488L33.4327 16.9078C33.6053 16.7331 33.6053 16.4508 33.4306 16.2761L31.6005 14.4459C31.4238 14.2712 31.1394 14.2712 30.9647 14.448L20.4306 25.0836C20.256 25.2583 19.9716 25.2603 19.7969 25.0856L15.0295 20.3467C14.8549 20.172 14.5725 20.172 14.3978 20.3467L12.5697 22.1769C12.5279 22.2184 12.4948 22.2678 12.4722 22.3221C12.4496 22.3765 12.4379 22.4348 12.4379 22.4937C12.4379 22.5526 12.4496 22.611 12.4722 22.6653C12.4948 22.7197 12.5279 22.7691 12.5697 22.8106Z" fill="#56B40D"/>
<path d="M19.8111 30.0134L19.4585 30.3679L19.4596 30.369L19.8111 30.0134ZM12.5697 22.8106L12.9223 22.4561L12.9223 22.4561L12.5697 22.8106ZM20.4449 30.0114L20.7984 30.3649L20.7994 30.364L20.4449 30.0114ZM21.9581 28.49L22.3126 28.8426L22.6643 28.489L22.3117 28.1364L21.9581 28.49ZM21.9561 28.488L21.601 28.136L21.2506 28.4895L21.6026 28.8415L21.9561 28.488ZM33.4327 16.9078L33.7878 17.2598L33.7883 17.2593L33.4327 16.9078ZM33.4306 16.2761L33.0771 16.6296L33.0771 16.6296L33.4306 16.2761ZM31.6005 14.4459L31.954 14.0924L31.952 14.0903L31.6005 14.4459ZM30.9647 14.448L31.32 14.7998L31.3203 14.7995L30.9647 14.448ZM20.4306 25.0836L20.7842 25.4371L20.7859 25.4354L20.4306 25.0836ZM19.7969 25.0856L20.1504 24.7321L20.1494 24.731L19.7969 25.0856ZM15.0295 20.3467L14.676 20.7003L14.6771 20.7013L15.0295 20.3467ZM14.3978 20.3467L14.0443 19.9932L14.0441 19.9934L14.3978 20.3467ZM12.5697 22.1769L12.9223 22.5314L12.9235 22.5302L12.5697 22.1769ZM12.4722 22.3221L12.9339 22.5141L12.9339 22.5141L12.4722 22.3221ZM12.4722 22.6653L12.9339 22.4733L12.9339 22.4733L12.4722 22.6653ZM22.5 41.5C32.9934 41.5 41.5 32.9934 41.5 22.5H40.5C40.5 32.4411 32.4411 40.5 22.5 40.5V41.5ZM3.5 22.5C3.5 32.9934 12.0066 41.5 22.5 41.5V40.5C12.5589 40.5 4.5 32.4411 4.5 22.5H3.5ZM22.5 3.5C12.0066 3.5 3.5 12.0066 3.5 22.5H4.5C4.5 12.5589 12.5589 4.5 22.5 4.5V3.5ZM41.5 22.5C41.5 12.0066 32.9934 3.5 22.5 3.5V4.5C32.4411 4.5 40.5 12.5589 40.5 22.5H41.5ZM22.5 44.5C34.6503 44.5 44.5 34.6503 44.5 22.5H43.5C43.5 34.098 34.098 43.5 22.5 43.5V44.5ZM0.5 22.5C0.5 34.6503 10.3497 44.5 22.5 44.5V43.5C10.902 43.5 1.5 34.098 1.5 22.5H0.5ZM22.5 0.5C10.3497 0.5 0.5 10.3497 0.5 22.5H1.5C1.5 10.902 10.902 1.5 22.5 1.5V0.5ZM44.5 22.5C44.5 10.3497 34.6503 0.5 22.5 0.5V1.5C34.098 1.5 43.5 10.902 43.5 22.5H44.5ZM20.1637 29.6589L12.9223 22.4561L12.2171 23.1651L19.4585 30.3679L20.1637 29.6589ZM20.0913 29.6578C20.1019 29.6473 20.1158 29.6427 20.1269 29.6427C20.1378 29.6426 20.1517 29.647 20.1626 29.6578L19.4596 30.369C19.8294 30.7345 20.4288 30.7346 20.7984 30.3649L20.0913 29.6578ZM21.6036 28.1374L20.0904 29.6588L20.7994 30.364L22.3126 28.8426L21.6036 28.1374ZM21.6026 28.8415L21.6046 28.8435L22.3117 28.1364L22.3097 28.1344L21.6026 28.8415ZM33.0775 16.5558L21.601 28.136L22.3113 28.8399L33.7878 17.2598L33.0775 16.5558ZM33.0771 16.6296C33.0569 16.6094 33.0569 16.5768 33.0771 16.5563L33.7883 17.2593C34.1538 16.8895 34.1538 16.2921 33.7842 15.9225L33.0771 16.6296ZM31.2469 14.7995L33.0771 16.6296L33.7842 15.9225L31.954 14.0924L31.2469 14.7995ZM31.3203 14.7995C31.2985 14.8215 31.2663 14.8186 31.249 14.8015L31.952 14.0903C31.5813 13.7239 30.9803 13.721 30.6091 14.0965L31.3203 14.7995ZM20.7859 25.4354L31.32 14.7998L30.6095 14.0961L20.0754 24.7317L20.7859 25.4354ZM19.4433 25.4392C19.8162 25.8121 20.4172 25.8041 20.7842 25.4371L20.0771 24.73C20.0947 24.7124 20.1269 24.7085 20.1504 24.7321L19.4433 25.4392ZM14.6771 20.7013L19.4444 25.4402L20.1494 24.731L15.382 19.9921L14.6771 20.7013ZM14.7514 20.7003C14.7308 20.7208 14.6966 20.7208 14.676 20.7003L15.3831 19.9932C15.0132 19.6232 14.4142 19.6232 14.0443 19.9932L14.7514 20.7003ZM12.9235 22.5302L14.7516 20.7001L14.0441 19.9934L12.216 21.8235L12.9235 22.5302ZM12.9339 22.5141C12.9312 22.5206 12.9272 22.5265 12.9223 22.5314L12.2171 21.8223C12.1287 21.9103 12.0584 22.0149 12.0105 22.1302L12.9339 22.5141ZM12.9379 22.4937C12.9379 22.5007 12.9365 22.5077 12.9339 22.5141L12.0105 22.1302C11.9626 22.2454 11.9379 22.3689 11.9379 22.4937H12.9379ZM12.9339 22.4733C12.9365 22.4798 12.9379 22.4867 12.9379 22.4937H11.9379C11.9379 22.6185 11.9626 22.7421 12.0105 22.8573L12.9339 22.4733ZM12.9223 22.4561C12.9272 22.461 12.9312 22.4669 12.9339 22.4733L12.0105 22.8573C12.0584 22.9725 12.1287 23.0772 12.2171 23.1652L12.9223 22.4561Z" fill="#56B40D"/>
</svg>
